<svg id="SvgjsSvg1311" width="288" height="288" xmlns="http://www.w3.org/2000/svg" version="1.1" xmlns:xlink="http://www.w3.org/1999/xlink" xmlns:svgjs="http://svgjs.com/svgjs"><defs id="SvgjsDefs1312"></defs><g id="SvgjsG1313"><svg xmlns="http://www.w3.org/2000/svg" width="288" height="288" viewBox="0 0 686.719 1014.356"><g data-name="Group 309" fill="#04e5e5" class="color000 svgShape"><g data-name="Group 278" transform="translate(.675 .674)" fill="#04e5e5" class="color000 svgShape"><g data-name="Group 271" opacity=".6" transform="translate(207.898 447.07)" fill="#04e5e5" class="color000 svgShape"><g data-name="Group 270" transform="translate(3.171 3.171)" fill="#04e5e5" class="color000 svgShape"><path fill="none" stroke="#03bce4" stroke-miterlimit="10" stroke-width=".25" d="M459.979,340.47l167.815,25.209L486.133,241.164Z" data-name="Path 153" transform="translate(-459.979 -200.702)" class="colorStroke2a2a2a svgStroke"></path><path fill="none" stroke="#03bce4" stroke-miterlimit="10" stroke-width=".25" d="M477,255.3l86.723-40.462L618.659,379.81l-6.972,121.7-40.641-90.682,47.613-31.021" data-name="Path 154" transform="translate(-450.845 -214.834)" class="colorStroke2a2a2a svgStroke"></path><line x1="128.774" y1="112.343" fill="none" stroke="#03bce4" stroke-miterlimit="10" stroke-width=".25" data-name="Line 17" transform="translate(112.876)" class="colorStroke2a2a2a svgStroke"></line><path fill="none" stroke="#03bce4" stroke-miterlimit="10" stroke-width=".25" d="M580.18,362.017l-120.2-56.23,70.4,138.68,49.8-82.45" data-name="Path 155" transform="translate(-459.979 -166.019)" class="colorStroke2a2a2a svgStroke"></path><path fill="none" stroke="#03bce4" stroke-miterlimit="10" stroke-width=".25" d="M612.594,541.218l-106.8-87.173,90.439,8.232,16.362,78.941,61.078-45.654,55.392-121.27-78.621,19.642,26.6-105.995L603.2,340.574l47.239,53.361-54.211,68.342,77.44,33.287L650.444,393.935" data-name="Path 156" transform="translate(-435.39 -175.598)" class="colorStroke2a2a2a svgStroke"></path><line x1="52.024" y1="86.353" fill="none" stroke="#03bce4" stroke-miterlimit="10" stroke-width=".25" data-name="Line 18" transform="translate(241.65 112.343)" class="colorStroke2a2a2a svgStroke"></line></g><path fill="#ffffff" stroke="#03bce4" d="M575.209,450.931a3.17,3.17,0,1,1-1.746,4.131A3.17,3.17,0,0,1,575.209,450.931Z" data-name="Path 157" transform="translate(-396.027 -85.076)" class="colorfff svgShape colorStroke2a2a2a svgStroke"></path><path fill="#ffffff" stroke="#03bce4" d="M564.561,399.56a3.17,3.17,0,1,1-1.744,4.131A3.17,3.17,0,0,1,564.561,399.56Z" data-name="Path 158" transform="translate(-401.741 -112.647)" class="colorfff svgShape colorStroke2a2a2a svgStroke"></path><path fill="#ffffff" stroke="#03bce4" d="M600.369,354.588a3.17,3.17,0,1,1-1.746,4.131A3.171,3.171,0,0,1,600.369,354.588Z" data-name="Path 159" transform="translate(-382.523 -136.783)" class="colorfff svgShape colorStroke2a2a2a svgStroke"></path><path fill="#ffffff" stroke="#03bce4" d="M651,342.3a3.17,3.17,0,1,1-1.746,4.129A3.17,3.17,0,0,1,651,342.3Z" data-name="Path 160" transform="translate(-355.349 -143.375)" class="colorfff svgShape colorStroke2a2a2a svgStroke"></path><path fill="#ffffff" stroke="#03bce4" d="M617.147,286.111a3.17,3.17,0,1,1-1.744,4.131A3.171,3.171,0,0,1,617.147,286.111Z" data-name="Path 161" transform="translate(-373.519 -173.534)" class="colorfff svgShape colorStroke2a2a2a svgStroke"></path><path fill="#ffffff" stroke="#03bce4" d="M569.1,320.362a3.17,3.17,0,1,1-1.746,4.131A3.171,3.171,0,0,1,569.1,320.362Z" data-name="Path 162" transform="translate(-399.306 -155.152)" class="colorfff svgShape colorStroke2a2a2a svgStroke"></path><path fill="#ffffff" stroke="#03bce4" d="M533.348,213a3.17,3.17,0,1,1-1.746,4.131A3.172,3.172,0,0,1,533.348,213Z" data-name="Path 163" transform="translate(-418.493 -212.77)" class="colorfff svgShape colorStroke2a2a2a svgStroke"></path><path fill="#ffffff" stroke="#03bce4" d="M476.913,239.334a3.17,3.17,0,1,1-1.744,4.131A3.171,3.171,0,0,1,476.913,239.334Z" data-name="Path 164" transform="translate(-448.781 -198.639)" class="colorfff svgShape colorStroke2a2a2a svgStroke"></path><path fill="#ffffff" stroke="#03bce4" d="M538.114,340.549a3.17,3.17,0,1,1-1.744,4.131A3.171,3.171,0,0,1,538.114,340.549Z" data-name="Path 165" transform="translate(-415.935 -144.317)" class="colorfff svgShape colorStroke2a2a2a svgStroke"></path><path fill="#ffffff" stroke="#03bce4" d="M505.708,394.2a3.171,3.171,0,1,1-1.744,4.131A3.171,3.171,0,0,1,505.708,394.2Z" data-name="Path 166" transform="translate(-433.327 -115.522)" class="colorfff svgShape colorStroke2a2a2a svgStroke"></path><path fill="#ffffff" stroke="#03bce4" d="M459.894,303.958a3.17,3.17,0,1,1-1.746,4.129A3.168,3.168,0,0,1,459.894,303.958Z" data-name="Path 167" transform="translate(-457.915 -163.956)" class="colorfff svgShape colorStroke2a2a2a svgStroke"></path><path fill="#ffffff" stroke="#03bce4" d="M615.543,420.921a3.17,3.17,0,1,1-1.744,4.131A3.171,3.171,0,0,1,615.543,420.921Z" data-name="Path 168" transform="translate(-374.379 -101.182)" class="colorfff svgShape colorStroke2a2a2a svgStroke"></path></g><g data-name="Group 273" transform="translate(114.845 188.279)" fill="#04e5e5" class="color000 svgShape"><g data-name="Group 272" transform="translate(3.171 3.171)" fill="#04e5e5" class="color000 svgShape"><path fill="none" stroke="#03bce4" stroke-miterlimit="10" stroke-width=".25" d="M649.142,172.062,481.327,197.271,622.988,72.756Z" data-name="Path 169" transform="translate(-355.467 -32.294)" class="colorStroke2a2a2a svgStroke"></path><path fill="none" stroke="#03bce4" stroke-miterlimit="10" stroke-width=".25" d="M622.988,86.887,536.266,46.425,481.327,211.4,488.3,333.1l40.641-90.682L481.327,211.4" data-name="Path 170" transform="translate(-355.467 -46.425)" class="colorStroke2a2a2a svgStroke"></path><line x2="128.774" y1="112.343" fill="none" stroke="#03bce4" stroke-miterlimit="10" stroke-width=".25" data-name="Line 19" transform="translate(52.024)" class="colorStroke2a2a2a svgStroke"></line><path fill="none" stroke="#03bce4" stroke-miterlimit="10" stroke-width=".25" d="M512.312,193.609l120.2-56.23-70.4,138.68-49.8-82.45" data-name="Path 171" transform="translate(-338.838 2.389)" class="colorStroke2a2a2a svgStroke"></path><path fill="none" stroke="#03bce4" stroke-miterlimit="10" stroke-width=".25" d="M515.895,372.81l106.8-87.172-90.439,8.232L515.895,372.81l-61.078-45.654L399.424,205.885l78.621,19.642-26.6-105.995,73.836,52.634-47.238,53.361,54.211,68.342-77.44,33.287,23.229-101.629" data-name="Path 172" transform="translate(-399.424 -7.189)" class="colorStroke2a2a2a svgStroke"></path><line x2="52.024" y1="86.353" fill="none" stroke="#03bce4" stroke-miterlimit="10" stroke-width=".25" data-name="Line 20" transform="translate(0 112.343)" class="colorStroke2a2a2a svgStroke"></line></g><path fill="#ffffff" stroke="#03bce4" d="M477.517,282.523a3.17,3.17,0,1,0,1.746,4.129A3.168,3.168,0,0,0,477.517,282.523Z" data-name="Path 173" transform="translate(-356.683 83.332)" class="colorfff svgShape colorStroke2a2a2a svgStroke"></path><path fill="#ffffff" stroke="#03bce4" d="M488.165,231.152a3.17,3.17,0,1,0,1.744,4.131A3.171,3.171,0,0,0,488.165,231.152Z" data-name="Path 174" transform="translate(-350.969 55.761)" class="colorfff svgShape colorStroke2a2a2a svgStroke"></path><path fill="#ffffff" stroke="#03bce4" d="M452.358,186.18a3.171,3.171,0,1,0,1.744,4.131A3.169,3.169,0,0,0,452.358,186.18Z" data-name="Path 175" transform="translate(-370.186 31.625)" class="colorfff svgShape colorStroke2a2a2a svgStroke"></path><path fill="#ffffff" stroke="#03bce4" d="M401.724,173.9a3.17,3.17,0,1,0,1.746,4.129A3.168,3.168,0,0,0,401.724,173.9Z" data-name="Path 176" transform="translate(-397.361 25.033)" class="colorfff svgShape colorStroke2a2a2a svgStroke"></path><path fill="#ffffff" stroke="#03bce4" d="M435.579,117.7a3.17,3.17,0,1,0,1.746,4.131A3.17,3.17,0,0,0,435.579,117.7Z" data-name="Path 177" transform="translate(-379.191 -5.126)" class="colorfff svgShape colorStroke2a2a2a svgStroke"></path><path fill="#ffffff" stroke="#03bce4" d="M483.627,151.954a3.17,3.17,0,1,0,1.746,4.131A3.169,3.169,0,0,0,483.627,151.954Z" data-name="Path 178" transform="translate(-353.404 13.257)" class="colorfff svgShape colorStroke2a2a2a svgStroke"></path><path fill="#ffffff" stroke="#03bce4" d="M519.378,44.6a3.17,3.17,0,1,0,1.746,4.131A3.168,3.168,0,0,0,519.378,44.6Z" data-name="Path 179" transform="translate(-334.217 -44.362)" class="colorfff svgShape colorStroke2a2a2a svgStroke"></path><path fill="#ffffff" stroke="#03bce4" d="M575.813,70.926a3.17,3.17,0,1,0,1.746,4.131A3.171,3.171,0,0,0,575.813,70.926Z" data-name="Path 180" transform="translate(-303.929 -30.23)" class="colorfff svgShape colorStroke2a2a2a svgStroke"></path><path fill="#ffffff" stroke="#03bce4" d="M514.612,172.141a3.17,3.17,0,1,0,1.746,4.131A3.17,3.17,0,0,0,514.612,172.141Z" data-name="Path 181" transform="translate(-336.775 24.091)" class="colorfff svgShape colorStroke2a2a2a svgStroke"></path><path fill="#ffffff" stroke="#03bce4" d="M547.018,225.795a3.171,3.171,0,1,0,1.744,4.131A3.17,3.17,0,0,0,547.018,225.795Z" data-name="Path 182" transform="translate(-319.383 52.886)" class="colorfff svgShape colorStroke2a2a2a svgStroke"></path><path fill="#ffffff" stroke="#03bce4" d="M592.833,135.548a3.171,3.171,0,1,0,1.744,4.131A3.171,3.171,0,0,0,592.833,135.548Z" data-name="Path 183" transform="translate(-294.795 4.452)" class="colorfff svgShape colorStroke2a2a2a svgStroke"></path><path fill="#ffffff" stroke="#03bce4" d="M437.183,252.513a3.17,3.17,0,1,0,1.746,4.131A3.17,3.17,0,0,0,437.183,252.513Z" data-name="Path 184" transform="translate(-378.331 67.226)" class="colorfff svgShape colorStroke2a2a2a svgStroke"></path></g><g data-name="Group 275" opacity=".6" fill="#04e5e5" class="color000 svgShape"><g data-name="Group 274" transform="translate(3.172 3.171)" fill="#04e5e5" class="color000 svgShape"><path fill="none" stroke="#03bce4" stroke-miterlimit="10" stroke-width=".25" d="M459.5-76.1l4.46,169.639L357.735-62.307Z" data-name="Path 185" transform="translate(-306.954 76.097)" class="colorStroke2a2a2a svgStroke"></path><path fill="none" stroke="#03bce4" stroke-miterlimit="10" stroke-width=".25" d="M375.471-67.123,324.69,13.989l157,74.736,121.64,7.99-85.02-51.444-36.62,43.454" data-name="Path 186" transform="translate(-324.69 80.914)" class="colorStroke2a2a2a svgStroke"></path><line x1="95.721" y1="141.567" fill="none" stroke="#03bce4" stroke-miterlimit="10" stroke-width=".25" data-name="Line 21" transform="translate(0 94.903)" class="colorStroke2a2a2a svgStroke"></line><path fill="none" stroke="#03bce4" stroke-miterlimit="10" stroke-width=".25" d="M465.037,50.087,423.957-76.1l129.01,86.863-87.93,39.322" data-name="Path 187" transform="translate(-271.414 76.097)" class="colorStroke2a2a2a svgStroke"></path><path fill="none" stroke="#03bce4" stroke-miterlimit="10" stroke-width=".25" d="M646.245,97.1,572.813-19.572,569.9,71.194,646.245,97.1l-52.793,55.025L466.308,192.247l29.126-75.623L386.98,130.036,448.262,63.2l47.172,53.42L569.9,71.194l23.549,80.934-98.017-35.5" data-name="Path 188" transform="translate(-291.259 106.434)" class="colorStroke2a2a2a svgStroke"></path><line x1="79.329" y1="62.211" fill="none" stroke="#03bce4" stroke-miterlimit="10" stroke-width=".25" data-name="Line 22" transform="translate(95.721 236.47)" class="colorStroke2a2a2a svgStroke"></line></g><path fill="#ffffff" stroke="#03bce4" d="M554.034,55.918a3.171,3.171,0,1,0,4.313-1.225A3.17,3.17,0,0,0,554.034,55.918Z" data-name="Path 189" transform="translate(-198.646 149.247)" class="colorfff svgShape colorStroke2a2a2a svgStroke"></path><path fill="#ffffff" stroke="#03bce4" d="M504.355,39.059a3.17,3.17,0,1,0,4.312-1.226A3.169,3.169,0,0,0,504.355,39.059Z" data-name="Path 190" transform="translate(-225.308 140.197)" class="colorfff svgShape colorStroke2a2a2a svgStroke"></path><path fill="#ffffff" stroke="#03bce4" d="M455.334,69.087a3.171,3.171,0,1,0,4.313-1.226A3.172,3.172,0,0,0,455.334,69.087Z" data-name="Path 191" transform="translate(-251.618 156.313)" class="colorfff svgShape colorStroke2a2a2a svgStroke"></path><path fill="#ffffff" stroke="#03bce4" d="M436.94,117.834a3.171,3.171,0,1,0,4.313-1.226A3.171,3.171,0,0,0,436.94,117.834Z" data-name="Path 192" transform="translate(-261.489 182.475)" class="colorfff svgShape colorStroke2a2a2a svgStroke"></path><path fill="#ffffff" stroke="#03bce4" d="M385.317,77.35a3.171,3.171,0,1,0,4.314-1.226A3.171,3.171,0,0,0,385.317,77.35Z" data-name="Path 193" transform="translate(-289.195 160.748)" class="colorfff svgShape colorStroke2a2a2a svgStroke"></path><path fill="#ffffff" stroke="#03bce4" d="M425.2,33.858a3.171,3.171,0,1,0,4.313-1.225A3.171,3.171,0,0,0,425.2,33.858Z" data-name="Path 194" transform="translate(-267.792 137.407)" class="colorfff svgShape colorStroke2a2a2a svgStroke"></path><path fill="#ffffff" stroke="#03bce4" d="M323.027-14.776a3.172,3.172,0,0,0,1.226,4.313,3.17,3.17,0,0,0,4.314-1.226A3.171,3.171,0,0,0,327.341-16,3.171,3.171,0,0,0,323.027-14.776Z" data-name="Path 195" transform="translate(-322.626 111.306)" class="colorfff svgShape colorStroke2a2a2a svgStroke"></path><path fill="#ffffff" stroke="#03bce4" d="M356.073-67.558a3.17,3.17,0,0,0,1.226,4.312,3.171,3.171,0,0,0,4.314-1.225,3.173,3.173,0,0,0-1.226-4.314A3.17,3.17,0,0,0,356.073-67.558Z" data-name="Path 196" transform="translate(-304.89 82.977)" class="colorfff svgShape colorStroke2a2a2a svgStroke"></path><path fill="#ffffff" stroke="#03bce4" d="M449.028,5.58a3.171,3.171,0,1,0,4.312-1.225A3.171,3.171,0,0,0,449.028,5.58Z" data-name="Path 197" transform="translate(-255.002 122.231)" class="colorfff svgShape colorStroke2a2a2a svgStroke"></path><path fill="#ffffff" stroke="#03bce4" d="M506.248-20.008a3.17,3.17,0,0,0,1.226,4.313,3.171,3.171,0,0,0,4.312-1.226,3.171,3.171,0,0,0-1.225-4.313A3.173,3.173,0,0,0,506.248-20.008Z" data-name="Path 198" transform="translate(-224.293 108.497)" class="colorfff svgShape colorStroke2a2a2a svgStroke"></path><path fill="#ffffff" stroke="#03bce4" d="M422.3-76.534a3.171,3.171,0,0,0,1.225,4.313,3.17,3.17,0,0,0,4.314-1.226,3.169,3.169,0,0,0-1.225-4.312A3.171,3.171,0,0,0,422.3-76.534Z" data-name="Path 199" transform="translate(-269.349 78.161)" class="colorfff svgShape colorStroke2a2a2a svgStroke"></path><path fill="#ffffff" stroke="#03bce4" d="M519.309,92.272a3.17,3.17,0,1,0,4.312-1.225A3.171,3.171,0,0,0,519.309,92.272Z" data-name="Path 200" transform="translate(-217.283 168.757)" class="colorfff svgShape colorStroke2a2a2a svgStroke"></path></g><g data-name="Group 277" transform="translate(340.228 756.01)" fill="#04e5e5" class="color000 svgShape"><g data-name="Group 276" transform="translate(3.606 3.171)" fill="#04e5e5" class="color000 svgShape"><path fill="none" stroke="#03bce4" stroke-miterlimit="10" stroke-width=".25" d="M792.608,462.107l-148.4,82.3,188.2,12.369Z" data-name="Path 201" transform="translate(-493.871 -391.064)" class="colorStroke2a2a2a svgStroke"></path><path fill="none" stroke="#03bce4" stroke-miterlimit="10" stroke-width=".25" d="M856.379,563.214l-44.09,84.935-144.109-97.3L599.529,450.111l87.491,47.12L668.18,550.845" data-name="Path 202" transform="translate(-517.848 -397.501)" class="colorStroke2a2a2a svgStroke"></path><line x2="170.563" y2="10.574" fill="none" stroke="#03bce4" stroke-miterlimit="10" stroke-width=".25" data-name="Line 23" transform="translate(123.878 240.073)" class="colorStroke2a2a2a svgStroke"></line><path fill="none" stroke="#03bce4" stroke-miterlimit="10" stroke-width=".25" d="M660.227,514.2l129.565-28.686L649.451,418.487,660.227,514.2" data-name="Path 203" transform="translate(-491.055 -414.474)" class="colorStroke2a2a2a svgStroke"></path><path fill="none" stroke="#03bce4" stroke-miterlimit="10" stroke-width=".25" d="M566.969,415.875l137.8,4.013-76.715,48.6-61.087-52.61L546.375,489.3l30,129.9,50.357-63.492,43.519,100.241,26.455-86.73-69.974-13.511,1.322-87.222L546.375,489.3l80.359,66.411" data-name="Path 204" transform="translate(-546.375 -415.875)" class="colorStroke2a2a2a svgStroke"></path><line x2="93.877" y2="36.749" fill="none" stroke="#03bce4" stroke-miterlimit="10" stroke-width=".25" data-name="Line 24" transform="translate(30.002 203.324)" class="colorStroke2a2a2a svgStroke"></line></g><path fill="#ffffff" stroke="#03bce4" d="M563.62,418.585a3.171,3.171,0,1,1-1.134-4.338A3.17,3.17,0,0,1,563.62,418.585Z" data-name="Path 205" transform="translate(-536.684 -413.812)" class="colorfff svgShape colorStroke2a2a2a svgStroke"></path><path fill="#ffffff" stroke="#03bce4" d="M603.372,452.821a3.171,3.171,0,1,1-1.134-4.338A3.17,3.17,0,0,1,603.372,452.821Z" data-name="Path 206" transform="translate(-515.349 -395.438)" class="colorfff svgShape colorStroke2a2a2a svgStroke"></path><path fill="#ffffff" stroke="#03bce4" d="M602.4,510.3a3.171,3.171,0,1,1-1.134-4.338A3.172,3.172,0,0,1,602.4,510.3Z" data-name="Path 207" transform="translate(-515.873 -364.59)" class="colorfff svgShape colorStroke2a2a2a svgStroke"></path><path fill="#ffffff" stroke="#03bce4" d="M569.742,550.9a3.171,3.171,0,1,1-1.134-4.338A3.171,3.171,0,0,1,569.742,550.9Z" data-name="Path 208" transform="translate(-533.398 -342.801)" class="colorfff svgShape colorStroke2a2a2a svgStroke"></path><path fill="#ffffff" stroke="#03bce4" d="M630.832,574.812a3.17,3.17,0,1,1-1.134-4.338A3.17,3.17,0,0,1,630.832,574.812Z" data-name="Path 209" transform="translate(-500.612 -329.966)" class="colorfff svgShape colorStroke2a2a2a svgStroke"></path><path fill="#ffffff" stroke="#03bce4" d="M648.047,518.373a3.171,3.171,0,1,1-1.134-4.338A3.172,3.172,0,0,1,648.047,518.373Z" data-name="Path 210" transform="translate(-491.373 -360.257)" class="colorfff svgShape colorStroke2a2a2a svgStroke"></path><path fill="#ffffff" stroke="#03bce4" d="M741.826,581.694a3.171,3.171,0,1,1-1.134-4.338A3.172,3.172,0,0,1,741.826,581.694Z" data-name="Path 211" transform="translate(-441.042 -326.273)" class="colorfff svgShape colorStroke2a2a2a svgStroke"></path><path fill="#ffffff" stroke="#03bce4" d="M770.517,526.422a3.171,3.171,0,1,1-1.134-4.338A3.171,3.171,0,0,1,770.517,526.422Z" data-name="Path 212" transform="translate(-425.644 -355.937)" class="colorfff svgShape colorStroke2a2a2a svgStroke"></path><path fill="#ffffff" stroke="#03bce4" d="M660.307,483.484a3.171,3.171,0,1,1-1.134-4.338A3.172,3.172,0,0,1,660.307,483.484Z" data-name="Path 213" transform="translate(-484.793 -378.981)" class="colorfff svgShape colorStroke2a2a2a svgStroke"></path><path fill="#ffffff" stroke="#03bce4" d="M653.294,421.2a3.17,3.17,0,1,1-1.133-4.338A3.167,3.167,0,0,1,653.294,421.2Z" data-name="Path 214" transform="translate(-488.556 -412.411)" class="colorfff svgShape colorStroke2a2a2a svgStroke"></path><path fill="#ffffff" stroke="#03bce4" d="M744.621,464.816a3.17,3.17,0,1,1-1.134-4.338A3.169,3.169,0,0,1,744.621,464.816Z" data-name="Path 215" transform="translate(-439.542 -389)" class="colorfff svgShape colorStroke2a2a2a svgStroke"></path><path fill="#ffffff" stroke="#03bce4" d="M549.935,466.96a3.171,3.171,0,1,1-1.134-4.338A3.17,3.17,0,0,1,549.935,466.96Z" data-name="Path 216" transform="translate(-544.028 -387.849)" class="colorfff svgShape colorStroke2a2a2a svgStroke"></path></g></g></g></svg></g></svg>