<svg id="SvgjsSvg1001" width="288" height="288" xmlns="http://www.w3.org/2000/svg" version="1.1" xmlns:xlink="http://www.w3.org/1999/xlink" xmlns:svgjs="http://svgjs.com/svgjs"><defs id="SvgjsDefs1002"></defs><g id="SvgjsG1008"><svg xmlns="http://www.w3.org/2000/svg" width="288" height="288" viewBox="0 0 233 276"><g data-name="Group 269" transform="translate(.409)" fill="#03bce4" class="color000 svgShape"><g data-name="Group 97" fill="#03bce4" class="color000 svgShape"><rect width="5" height="5" fill="#03bce4" data-name="Rectangle 86" transform="translate(227.591)" class="color754ef9 svgShape"></rect><rect width="4" height="5" fill="#03bce4" data-name="Rectangle 87" transform="translate(210.591)" class="color754ef9 svgShape"></rect><rect width="5" height="5" fill="#03bce4" data-name="Rectangle 88" transform="translate(192.591)" class="color754ef9 svgShape"></rect><rect width="4" height="5" fill="#03bce4" data-name="Rectangle 89" transform="translate(175.591)" class="color754ef9 svgShape"></rect><rect width="5" height="5" fill="#03bce4" data-name="Rectangle 90" transform="translate(157.591)" class="color754ef9 svgShape"></rect><rect width="4" height="5" fill="#03bce4" data-name="Rectangle 91" transform="translate(140.591)" class="color754ef9 svgShape"></rect><rect width="5" height="5" fill="#03bce4" data-name="Rectangle 92" transform="translate(122.591)" class="color754ef9 svgShape"></rect><rect width="4" height="5" fill="#03bce4" data-name="Rectangle 93" transform="translate(105.591)" class="color754ef9 svgShape"></rect><rect width="5" height="5" fill="#03bce4" data-name="Rectangle 94" transform="translate(88.591)" class="color754ef9 svgShape"></rect><rect width="4" height="5" fill="#03bce4" data-name="Rectangle 95" transform="translate(70.591)" class="color754ef9 svgShape"></rect><rect width="5" height="5" fill="#03bce4" data-name="Rectangle 96" transform="translate(52.591)" class="color754ef9 svgShape"></rect><rect width="5" height="5" fill="#03bce4" data-name="Rectangle 97" transform="translate(34.591)" class="color754ef9 svgShape"></rect><rect width="5" height="5" fill="#03bce4" data-name="Rectangle 98" transform="translate(17.591)" class="color754ef9 svgShape"></rect><rect width="5" height="5" fill="#03bce4" data-name="Rectangle 99" transform="translate(-.409)" class="color754ef9 svgShape"></rect></g><g data-name="Group 106" transform="translate(0 70.892)" fill="#03bce4" class="color000 svgShape"><rect width="5" height="5" fill="#03bce4" data-name="Rectangle 86" transform="translate(227.591 .108)" class="color754ef9 svgShape"></rect><rect width="4" height="5" fill="#03bce4" data-name="Rectangle 87" transform="translate(210.591 .108)" class="color754ef9 svgShape"></rect><rect width="5" height="5" fill="#03bce4" data-name="Rectangle 88" transform="translate(192.591 .108)" class="color754ef9 svgShape"></rect><rect width="4" height="5" fill="#03bce4" data-name="Rectangle 89" transform="translate(175.591 .108)" class="color754ef9 svgShape"></rect><rect width="5" height="5" fill="#03bce4" data-name="Rectangle 90" transform="translate(157.591 .108)" class="color754ef9 svgShape"></rect><rect width="4" height="5" fill="#03bce4" data-name="Rectangle 91" transform="translate(140.591 .108)" class="color754ef9 svgShape"></rect><rect width="5" height="5" fill="#03bce4" data-name="Rectangle 92" transform="translate(122.591 .108)" class="color754ef9 svgShape"></rect><rect width="4" height="5" fill="#03bce4" data-name="Rectangle 93" transform="translate(105.591 .108)" class="color754ef9 svgShape"></rect><rect width="5" height="5" fill="#03bce4" data-name="Rectangle 94" transform="translate(88.591 .108)" class="color754ef9 svgShape"></rect><rect width="4" height="5" fill="#03bce4" data-name="Rectangle 95" transform="translate(70.591 .108)" class="color754ef9 svgShape"></rect><rect width="5" height="5" fill="#03bce4" data-name="Rectangle 96" transform="translate(52.591 .108)" class="color754ef9 svgShape"></rect><rect width="5" height="5" fill="#03bce4" data-name="Rectangle 97" transform="translate(34.591 .108)" class="color754ef9 svgShape"></rect><rect width="5" height="5" fill="#03bce4" data-name="Rectangle 98" transform="translate(17.591 .108)" class="color754ef9 svgShape"></rect><rect width="5" height="5" fill="#03bce4" data-name="Rectangle 99" transform="translate(-.409 .108)" class="color754ef9 svgShape"></rect></g><g data-name="Group 111" transform="translate(0 142.581)" fill="#03bce4" class="color000 svgShape"><rect width="5" height="4" fill="#03bce4" data-name="Rectangle 86" transform="translate(227.591 .419)" class="color754ef9 svgShape"></rect><rect width="4" height="4" fill="#03bce4" data-name="Rectangle 87" transform="translate(210.591 .419)" class="color754ef9 svgShape"></rect><rect width="5" height="4" fill="#03bce4" data-name="Rectangle 88" transform="translate(192.591 .419)" class="color754ef9 svgShape"></rect><rect width="4" height="4" fill="#03bce4" data-name="Rectangle 89" transform="translate(175.591 .419)" class="color754ef9 svgShape"></rect><rect width="5" height="4" fill="#03bce4" data-name="Rectangle 90" transform="translate(157.591 .419)" class="color754ef9 svgShape"></rect><rect width="4" height="4" fill="#03bce4" data-name="Rectangle 91" transform="translate(140.591 .419)" class="color754ef9 svgShape"></rect><rect width="5" height="4" fill="#03bce4" data-name="Rectangle 92" transform="translate(122.591 .419)" class="color754ef9 svgShape"></rect><rect width="4" height="4" fill="#03bce4" data-name="Rectangle 93" transform="translate(105.591 .419)" class="color754ef9 svgShape"></rect><rect width="5" height="4" fill="#03bce4" data-name="Rectangle 94" transform="translate(88.591 .419)" class="color754ef9 svgShape"></rect><rect width="4" height="4" fill="#03bce4" data-name="Rectangle 95" transform="translate(70.591 .419)" class="color754ef9 svgShape"></rect><rect width="5" height="4" fill="#03bce4" data-name="Rectangle 96" transform="translate(52.591 .419)" class="color754ef9 svgShape"></rect><rect width="5" height="4" fill="#03bce4" data-name="Rectangle 97" transform="translate(34.591 .419)" class="color754ef9 svgShape"></rect><rect width="5" height="4" fill="#03bce4" data-name="Rectangle 98" transform="translate(17.591 .419)" class="color754ef9 svgShape"></rect><rect width="5" height="4" fill="#03bce4" data-name="Rectangle 99" transform="translate(-.409 .419)" class="color754ef9 svgShape"></rect></g><g data-name="Group 116" transform="translate(0 214.27)" fill="#03bce4" class="color000 svgShape"><rect width="5" height="4" fill="#03bce4" data-name="Rectangle 86" transform="translate(227.591 -.27)" class="color754ef9 svgShape"></rect><rect width="4" height="4" fill="#03bce4" data-name="Rectangle 87" transform="translate(210.591 -.27)" class="color754ef9 svgShape"></rect><rect width="5" height="4" fill="#03bce4" data-name="Rectangle 88" transform="translate(192.591 -.27)" class="color754ef9 svgShape"></rect><rect width="4" height="4" fill="#03bce4" data-name="Rectangle 89" transform="translate(175.591 -.27)" class="color754ef9 svgShape"></rect><rect width="5" height="4" fill="#03bce4" data-name="Rectangle 90" transform="translate(157.591 -.27)" class="color754ef9 svgShape"></rect><rect width="4" height="4" fill="#03bce4" data-name="Rectangle 91" transform="translate(140.591 -.27)" class="color754ef9 svgShape"></rect><rect width="5" height="4" fill="#03bce4" data-name="Rectangle 92" transform="translate(122.591 -.27)" class="color754ef9 svgShape"></rect><rect width="4" height="4" fill="#03bce4" data-name="Rectangle 93" transform="translate(105.591 -.27)" class="color754ef9 svgShape"></rect><rect width="5" height="4" fill="#03bce4" data-name="Rectangle 94" transform="translate(88.591 -.27)" class="color754ef9 svgShape"></rect><rect width="4" height="4" fill="#03bce4" data-name="Rectangle 95" transform="translate(70.591 -.27)" class="color754ef9 svgShape"></rect><rect width="5" height="4" fill="#03bce4" data-name="Rectangle 96" transform="translate(52.591 -.27)" class="color754ef9 svgShape"></rect><rect width="5" height="4" fill="#03bce4" data-name="Rectangle 97" transform="translate(34.591 -.27)" class="color754ef9 svgShape"></rect><rect width="5" height="4" fill="#03bce4" data-name="Rectangle 98" transform="translate(17.591 -.27)" class="color754ef9 svgShape"></rect><rect width="5" height="4" fill="#03bce4" data-name="Rectangle 99" transform="translate(-.409 -.27)" class="color754ef9 svgShape"></rect></g><g data-name="Group 98" transform="translate(0 14.338)" fill="#03bce4" class="color000 svgShape"><rect width="5" height="4" fill="#03bce4" data-name="Rectangle 86" transform="translate(227.591 -.338)" class="color754ef9 svgShape"></rect><rect width="4" height="4" fill="#03bce4" data-name="Rectangle 87" transform="translate(210.591 -.338)" class="color754ef9 svgShape"></rect><rect width="5" height="4" fill="#03bce4" data-name="Rectangle 88" transform="translate(192.591 -.338)" class="color754ef9 svgShape"></rect><rect width="4" height="4" fill="#03bce4" data-name="Rectangle 89" transform="translate(175.591 -.338)" class="color754ef9 svgShape"></rect><rect width="5" height="4" fill="#03bce4" data-name="Rectangle 90" transform="translate(157.591 -.338)" class="color754ef9 svgShape"></rect><rect width="4" height="4" fill="#03bce4" data-name="Rectangle 91" transform="translate(140.591 -.338)" class="color754ef9 svgShape"></rect><rect width="5" height="4" fill="#03bce4" data-name="Rectangle 92" transform="translate(122.591 -.338)" class="color754ef9 svgShape"></rect><rect width="4" height="4" fill="#03bce4" data-name="Rectangle 93" transform="translate(105.591 -.338)" class="color754ef9 svgShape"></rect><rect width="5" height="4" fill="#03bce4" data-name="Rectangle 94" transform="translate(88.591 -.338)" class="color754ef9 svgShape"></rect><rect width="4" height="4" fill="#03bce4" data-name="Rectangle 95" transform="translate(70.591 -.338)" class="color754ef9 svgShape"></rect><rect width="5" height="4" fill="#03bce4" data-name="Rectangle 96" transform="translate(52.591 -.338)" class="color754ef9 svgShape"></rect><rect width="5" height="4" fill="#03bce4" data-name="Rectangle 97" transform="translate(34.591 -.338)" class="color754ef9 svgShape"></rect><rect width="5" height="4" fill="#03bce4" data-name="Rectangle 98" transform="translate(17.591 -.338)" class="color754ef9 svgShape"></rect><rect width="5" height="4" fill="#03bce4" data-name="Rectangle 99" transform="translate(-.409 -.338)" class="color754ef9 svgShape"></rect></g><g data-name="Group 105" transform="translate(0 86.027)" fill="#03bce4" class="color000 svgShape"><rect width="5" height="4" fill="#03bce4" data-name="Rectangle 86" transform="translate(227.591 -.027)" class="color754ef9 svgShape"></rect><rect width="4" height="4" fill="#03bce4" data-name="Rectangle 87" transform="translate(210.591 -.027)" class="color754ef9 svgShape"></rect><rect width="5" height="4" fill="#03bce4" data-name="Rectangle 88" transform="translate(192.591 -.027)" class="color754ef9 svgShape"></rect><rect width="4" height="4" fill="#03bce4" data-name="Rectangle 89" transform="translate(175.591 -.027)" class="color754ef9 svgShape"></rect><rect width="5" height="4" fill="#03bce4" data-name="Rectangle 90" transform="translate(157.591 -.027)" class="color754ef9 svgShape"></rect><rect width="4" height="4" fill="#03bce4" data-name="Rectangle 91" transform="translate(140.591 -.027)" class="color754ef9 svgShape"></rect><rect width="5" height="4" fill="#03bce4" data-name="Rectangle 92" transform="translate(122.591 -.027)" class="color754ef9 svgShape"></rect><rect width="4" height="4" fill="#03bce4" data-name="Rectangle 93" transform="translate(105.591 -.027)" class="color754ef9 svgShape"></rect><rect width="5" height="4" fill="#03bce4" data-name="Rectangle 94" transform="translate(88.591 -.027)" class="color754ef9 svgShape"></rect><rect width="4" height="4" fill="#03bce4" data-name="Rectangle 95" transform="translate(70.591 -.027)" class="color754ef9 svgShape"></rect><rect width="5" height="4" fill="#03bce4" data-name="Rectangle 96" transform="translate(52.591 -.027)" class="color754ef9 svgShape"></rect><rect width="5" height="4" fill="#03bce4" data-name="Rectangle 97" transform="translate(34.591 -.027)" class="color754ef9 svgShape"></rect><rect width="5" height="4" fill="#03bce4" data-name="Rectangle 98" transform="translate(17.591 -.027)" class="color754ef9 svgShape"></rect><rect width="5" height="4" fill="#03bce4" data-name="Rectangle 99" transform="translate(-.409 -.027)" class="color754ef9 svgShape"></rect></g><g data-name="Group 110" transform="translate(0 156.919)" fill="#03bce4" class="color000 svgShape"><rect width="5" height="5" fill="#03bce4" data-name="Rectangle 86" transform="translate(227.591 .081)" class="color754ef9 svgShape"></rect><rect width="4" height="5" fill="#03bce4" data-name="Rectangle 87" transform="translate(210.591 .081)" class="color754ef9 svgShape"></rect><rect width="5" height="5" fill="#03bce4" data-name="Rectangle 88" transform="translate(192.591 .081)" class="color754ef9 svgShape"></rect><rect width="4" height="5" fill="#03bce4" data-name="Rectangle 89" transform="translate(175.591 .081)" class="color754ef9 svgShape"></rect><rect width="5" height="5" fill="#03bce4" data-name="Rectangle 90" transform="translate(157.591 .081)" class="color754ef9 svgShape"></rect><rect width="4" height="5" fill="#03bce4" data-name="Rectangle 91" transform="translate(140.591 .081)" class="color754ef9 svgShape"></rect><rect width="5" height="5" fill="#03bce4" data-name="Rectangle 92" transform="translate(122.591 .081)" class="color754ef9 svgShape"></rect><rect width="4" height="5" fill="#03bce4" data-name="Rectangle 93" transform="translate(105.591 .081)" class="color754ef9 svgShape"></rect><rect width="5" height="5" fill="#03bce4" data-name="Rectangle 94" transform="translate(88.591 .081)" class="color754ef9 svgShape"></rect><rect width="4" height="5" fill="#03bce4" data-name="Rectangle 95" transform="translate(70.591 .081)" class="color754ef9 svgShape"></rect><rect width="5" height="5" fill="#03bce4" data-name="Rectangle 96" transform="translate(52.591 .081)" class="color754ef9 svgShape"></rect><rect width="5" height="5" fill="#03bce4" data-name="Rectangle 97" transform="translate(34.591 .081)" class="color754ef9 svgShape"></rect><rect width="5" height="5" fill="#03bce4" data-name="Rectangle 98" transform="translate(17.591 .081)" class="color754ef9 svgShape"></rect><rect width="5" height="5" fill="#03bce4" data-name="Rectangle 99" transform="translate(-.409 .081)" class="color754ef9 svgShape"></rect></g><g data-name="Group 115" transform="translate(0 227.811)" fill="#03bce4" class="color000 svgShape"><rect width="5" height="5" fill="#03bce4" data-name="Rectangle 86" transform="translate(227.591 .189)" class="color754ef9 svgShape"></rect><rect width="4" height="5" fill="#03bce4" data-name="Rectangle 87" transform="translate(210.591 .189)" class="color754ef9 svgShape"></rect><rect width="5" height="5" fill="#03bce4" data-name="Rectangle 88" transform="translate(192.591 .189)" class="color754ef9 svgShape"></rect><rect width="4" height="5" fill="#03bce4" data-name="Rectangle 89" transform="translate(175.591 .189)" class="color754ef9 svgShape"></rect><rect width="5" height="5" fill="#03bce4" data-name="Rectangle 90" transform="translate(157.591 .189)" class="color754ef9 svgShape"></rect><rect width="4" height="5" fill="#03bce4" data-name="Rectangle 91" transform="translate(140.591 .189)" class="color754ef9 svgShape"></rect><rect width="5" height="5" fill="#03bce4" data-name="Rectangle 92" transform="translate(122.591 .189)" class="color754ef9 svgShape"></rect><rect width="4" height="5" fill="#03bce4" data-name="Rectangle 93" transform="translate(105.591 .189)" class="color754ef9 svgShape"></rect><rect width="5" height="5" fill="#03bce4" data-name="Rectangle 94" transform="translate(88.591 .189)" class="color754ef9 svgShape"></rect><rect width="4" height="5" fill="#03bce4" data-name="Rectangle 95" transform="translate(70.591 .189)" class="color754ef9 svgShape"></rect><rect width="5" height="5" fill="#03bce4" data-name="Rectangle 96" transform="translate(52.591 .189)" class="color754ef9 svgShape"></rect><rect width="5" height="5" fill="#03bce4" data-name="Rectangle 97" transform="translate(34.591 .189)" class="color754ef9 svgShape"></rect><rect width="5" height="5" fill="#03bce4" data-name="Rectangle 98" transform="translate(17.591 .189)" class="color754ef9 svgShape"></rect><rect width="5" height="5" fill="#03bce4" data-name="Rectangle 99" transform="translate(-.409 .189)" class="color754ef9 svgShape"></rect></g><g data-name="Group 99" transform="translate(0 28.676)" fill="#03bce4" class="color000 svgShape"><rect width="5" height="4" fill="#03bce4" data-name="Rectangle 86" transform="translate(227.591 .324)" class="color754ef9 svgShape"></rect><rect width="4" height="4" fill="#03bce4" data-name="Rectangle 87" transform="translate(210.591 .324)" class="color754ef9 svgShape"></rect><rect width="5" height="4" fill="#03bce4" data-name="Rectangle 88" transform="translate(192.591 .324)" class="color754ef9 svgShape"></rect><rect width="4" height="4" fill="#03bce4" data-name="Rectangle 89" transform="translate(175.591 .324)" class="color754ef9 svgShape"></rect><rect width="5" height="4" fill="#03bce4" data-name="Rectangle 90" transform="translate(157.591 .324)" class="color754ef9 svgShape"></rect><rect width="4" height="4" fill="#03bce4" data-name="Rectangle 91" transform="translate(140.591 .324)" class="color754ef9 svgShape"></rect><rect width="5" height="4" fill="#03bce4" data-name="Rectangle 92" transform="translate(122.591 .324)" class="color754ef9 svgShape"></rect><rect width="4" height="4" fill="#03bce4" data-name="Rectangle 93" transform="translate(105.591 .324)" class="color754ef9 svgShape"></rect><rect width="5" height="4" fill="#03bce4" data-name="Rectangle 94" transform="translate(88.591 .324)" class="color754ef9 svgShape"></rect><rect width="4" height="4" fill="#03bce4" data-name="Rectangle 95" transform="translate(70.591 .324)" class="color754ef9 svgShape"></rect><rect width="5" height="4" fill="#03bce4" data-name="Rectangle 96" transform="translate(52.591 .324)" class="color754ef9 svgShape"></rect><rect width="5" height="4" fill="#03bce4" data-name="Rectangle 97" transform="translate(34.591 .324)" class="color754ef9 svgShape"></rect><rect width="5" height="4" fill="#03bce4" data-name="Rectangle 98" transform="translate(17.591 .324)" class="color754ef9 svgShape"></rect><rect width="5" height="4" fill="#03bce4" data-name="Rectangle 99" transform="translate(-.409 .324)" class="color754ef9 svgShape"></rect></g><g data-name="Group 104" transform="translate(0 100.364)" fill="#03bce4" class="color000 svgShape"><rect width="5" height="4" fill="#03bce4" data-name="Rectangle 86" transform="translate(227.591 -.364)" class="color754ef9 svgShape"></rect><rect width="4" height="4" fill="#03bce4" data-name="Rectangle 87" transform="translate(210.591 -.364)" class="color754ef9 svgShape"></rect><rect width="5" height="4" fill="#03bce4" data-name="Rectangle 88" transform="translate(192.591 -.364)" class="color754ef9 svgShape"></rect><rect width="4" height="4" fill="#03bce4" data-name="Rectangle 89" transform="translate(175.591 -.364)" class="color754ef9 svgShape"></rect><rect width="5" height="4" fill="#03bce4" data-name="Rectangle 90" transform="translate(157.591 -.364)" class="color754ef9 svgShape"></rect><rect width="4" height="4" fill="#03bce4" data-name="Rectangle 91" transform="translate(140.591 -.364)" class="color754ef9 svgShape"></rect><rect width="5" height="4" fill="#03bce4" data-name="Rectangle 92" transform="translate(122.591 -.364)" class="color754ef9 svgShape"></rect><rect width="4" height="4" fill="#03bce4" data-name="Rectangle 93" transform="translate(105.591 -.364)" class="color754ef9 svgShape"></rect><rect width="5" height="4" fill="#03bce4" data-name="Rectangle 94" transform="translate(88.591 -.364)" class="color754ef9 svgShape"></rect><rect width="4" height="4" fill="#03bce4" data-name="Rectangle 95" transform="translate(70.591 -.364)" class="color754ef9 svgShape"></rect><rect width="5" height="4" fill="#03bce4" data-name="Rectangle 96" transform="translate(52.591 -.364)" class="color754ef9 svgShape"></rect><rect width="5" height="4" fill="#03bce4" data-name="Rectangle 97" transform="translate(34.591 -.364)" class="color754ef9 svgShape"></rect><rect width="5" height="4" fill="#03bce4" data-name="Rectangle 98" transform="translate(17.591 -.364)" class="color754ef9 svgShape"></rect><rect width="5" height="4" fill="#03bce4" data-name="Rectangle 99" transform="translate(-.409 -.364)" class="color754ef9 svgShape"></rect></g><g data-name="Group 109" transform="translate(0 171.257)" fill="#03bce4" class="color000 svgShape"><rect width="5" height="4" fill="#03bce4" data-name="Rectangle 86" transform="translate(227.591 -.257)" class="color754ef9 svgShape"></rect><rect width="4" height="4" fill="#03bce4" data-name="Rectangle 87" transform="translate(210.591 -.257)" class="color754ef9 svgShape"></rect><rect width="5" height="4" fill="#03bce4" data-name="Rectangle 88" transform="translate(192.591 -.257)" class="color754ef9 svgShape"></rect><rect width="4" height="4" fill="#03bce4" data-name="Rectangle 89" transform="translate(175.591 -.257)" class="color754ef9 svgShape"></rect><rect width="5" height="4" fill="#03bce4" data-name="Rectangle 90" transform="translate(157.591 -.257)" class="color754ef9 svgShape"></rect><rect width="4" height="4" fill="#03bce4" data-name="Rectangle 91" transform="translate(140.591 -.257)" class="color754ef9 svgShape"></rect><rect width="5" height="4" fill="#03bce4" data-name="Rectangle 92" transform="translate(122.591 -.257)" class="color754ef9 svgShape"></rect><rect width="4" height="4" fill="#03bce4" data-name="Rectangle 93" transform="translate(105.591 -.257)" class="color754ef9 svgShape"></rect><rect width="5" height="4" fill="#03bce4" data-name="Rectangle 94" transform="translate(88.591 -.257)" class="color754ef9 svgShape"></rect><rect width="4" height="4" fill="#03bce4" data-name="Rectangle 95" transform="translate(70.591 -.257)" class="color754ef9 svgShape"></rect><rect width="5" height="4" fill="#03bce4" data-name="Rectangle 96" transform="translate(52.591 -.257)" class="color754ef9 svgShape"></rect><rect width="5" height="4" fill="#03bce4" data-name="Rectangle 97" transform="translate(34.591 -.257)" class="color754ef9 svgShape"></rect><rect width="5" height="4" fill="#03bce4" data-name="Rectangle 98" transform="translate(17.591 -.257)" class="color754ef9 svgShape"></rect><rect width="5" height="4" fill="#03bce4" data-name="Rectangle 99" transform="translate(-.409 -.257)" class="color754ef9 svgShape"></rect></g><g data-name="Group 114" transform="translate(0 242.149)" fill="#03bce4" class="color000 svgShape"><rect width="5" height="5" fill="#03bce4" data-name="Rectangle 86" transform="translate(227.591 -.149)" class="color754ef9 svgShape"></rect><rect width="4" height="5" fill="#03bce4" data-name="Rectangle 87" transform="translate(210.591 -.149)" class="color754ef9 svgShape"></rect><rect width="5" height="5" fill="#03bce4" data-name="Rectangle 88" transform="translate(192.591 -.149)" class="color754ef9 svgShape"></rect><rect width="4" height="5" fill="#03bce4" data-name="Rectangle 89" transform="translate(175.591 -.149)" class="color754ef9 svgShape"></rect><rect width="5" height="5" fill="#03bce4" data-name="Rectangle 90" transform="translate(157.591 -.149)" class="color754ef9 svgShape"></rect><rect width="4" height="5" fill="#03bce4" data-name="Rectangle 91" transform="translate(140.591 -.149)" class="color754ef9 svgShape"></rect><rect width="5" height="5" fill="#03bce4" data-name="Rectangle 92" transform="translate(122.591 -.149)" class="color754ef9 svgShape"></rect><rect width="4" height="5" fill="#03bce4" data-name="Rectangle 93" transform="translate(105.591 -.149)" class="color754ef9 svgShape"></rect><rect width="5" height="5" fill="#03bce4" data-name="Rectangle 94" transform="translate(88.591 -.149)" class="color754ef9 svgShape"></rect><rect width="4" height="5" fill="#03bce4" data-name="Rectangle 95" transform="translate(70.591 -.149)" class="color754ef9 svgShape"></rect><rect width="5" height="5" fill="#03bce4" data-name="Rectangle 96" transform="translate(52.591 -.149)" class="color754ef9 svgShape"></rect><rect width="5" height="5" fill="#03bce4" data-name="Rectangle 97" transform="translate(34.591 -.149)" class="color754ef9 svgShape"></rect><rect width="5" height="5" fill="#03bce4" data-name="Rectangle 98" transform="translate(17.591 -.149)" class="color754ef9 svgShape"></rect><rect width="5" height="5" fill="#03bce4" data-name="Rectangle 99" transform="translate(-.409 -.149)" class="color754ef9 svgShape"></rect></g><g data-name="Group 100" transform="translate(0 43.013)" fill="#03bce4" class="color000 svgShape"><rect width="5" height="5" fill="#03bce4" data-name="Rectangle 86" transform="translate(227.591 -.013)" class="color754ef9 svgShape"></rect><rect width="4" height="5" fill="#03bce4" data-name="Rectangle 87" transform="translate(210.591 -.013)" class="color754ef9 svgShape"></rect><rect width="5" height="5" fill="#03bce4" data-name="Rectangle 88" transform="translate(192.591 -.013)" class="color754ef9 svgShape"></rect><rect width="4" height="5" fill="#03bce4" data-name="Rectangle 89" transform="translate(175.591 -.013)" class="color754ef9 svgShape"></rect><rect width="5" height="5" fill="#03bce4" data-name="Rectangle 90" transform="translate(157.591 -.013)" class="color754ef9 svgShape"></rect><rect width="4" height="5" fill="#03bce4" data-name="Rectangle 91" transform="translate(140.591 -.013)" class="color754ef9 svgShape"></rect><rect width="5" height="5" fill="#03bce4" data-name="Rectangle 92" transform="translate(122.591 -.013)" class="color754ef9 svgShape"></rect><rect width="4" height="5" fill="#03bce4" data-name="Rectangle 93" transform="translate(105.591 -.013)" class="color754ef9 svgShape"></rect><rect width="5" height="5" fill="#03bce4" data-name="Rectangle 94" transform="translate(88.591 -.013)" class="color754ef9 svgShape"></rect><rect width="4" height="5" fill="#03bce4" data-name="Rectangle 95" transform="translate(70.591 -.013)" class="color754ef9 svgShape"></rect><rect width="5" height="5" fill="#03bce4" data-name="Rectangle 96" transform="translate(52.591 -.013)" class="color754ef9 svgShape"></rect><rect width="5" height="5" fill="#03bce4" data-name="Rectangle 97" transform="translate(34.591 -.013)" class="color754ef9 svgShape"></rect><rect width="5" height="5" fill="#03bce4" data-name="Rectangle 98" transform="translate(17.591 -.013)" class="color754ef9 svgShape"></rect><rect width="5" height="5" fill="#03bce4" data-name="Rectangle 99" transform="translate(-.409 -.013)" class="color754ef9 svgShape"></rect></g><g data-name="Group 103" transform="translate(0 113.906)" fill="#03bce4" class="color000 svgShape"><rect width="5" height="5" fill="#03bce4" data-name="Rectangle 86" transform="translate(227.591 .094)" class="color754ef9 svgShape"></rect><rect width="4" height="5" fill="#03bce4" data-name="Rectangle 87" transform="translate(210.591 .094)" class="color754ef9 svgShape"></rect><rect width="5" height="5" fill="#03bce4" data-name="Rectangle 88" transform="translate(192.591 .094)" class="color754ef9 svgShape"></rect><rect width="4" height="5" fill="#03bce4" data-name="Rectangle 89" transform="translate(175.591 .094)" class="color754ef9 svgShape"></rect><rect width="5" height="5" fill="#03bce4" data-name="Rectangle 90" transform="translate(157.591 .094)" class="color754ef9 svgShape"></rect><rect width="4" height="5" fill="#03bce4" data-name="Rectangle 91" transform="translate(140.591 .094)" class="color754ef9 svgShape"></rect><rect width="5" height="5" fill="#03bce4" data-name="Rectangle 92" transform="translate(122.591 .094)" class="color754ef9 svgShape"></rect><rect width="4" height="5" fill="#03bce4" data-name="Rectangle 93" transform="translate(105.591 .094)" class="color754ef9 svgShape"></rect><rect width="5" height="5" fill="#03bce4" data-name="Rectangle 94" transform="translate(88.591 .094)" class="color754ef9 svgShape"></rect><rect width="4" height="5" fill="#03bce4" data-name="Rectangle 95" transform="translate(70.591 .094)" class="color754ef9 svgShape"></rect><rect width="5" height="5" fill="#03bce4" data-name="Rectangle 96" transform="translate(52.591 .094)" class="color754ef9 svgShape"></rect><rect width="5" height="5" fill="#03bce4" data-name="Rectangle 97" transform="translate(34.591 .094)" class="color754ef9 svgShape"></rect><rect width="5" height="5" fill="#03bce4" data-name="Rectangle 98" transform="translate(17.591 .094)" class="color754ef9 svgShape"></rect><rect width="5" height="5" fill="#03bce4" data-name="Rectangle 99" transform="translate(-.409 .094)" class="color754ef9 svgShape"></rect></g><g data-name="Group 108" transform="translate(0 185.594)" fill="#03bce4" class="color000 svgShape"><rect width="5" height="4" fill="#03bce4" data-name="Rectangle 86" transform="translate(227.591 .406)" class="color754ef9 svgShape"></rect><rect width="4" height="4" fill="#03bce4" data-name="Rectangle 87" transform="translate(210.591 .406)" class="color754ef9 svgShape"></rect><rect width="5" height="4" fill="#03bce4" data-name="Rectangle 88" transform="translate(192.591 .406)" class="color754ef9 svgShape"></rect><rect width="4" height="4" fill="#03bce4" data-name="Rectangle 89" transform="translate(175.591 .406)" class="color754ef9 svgShape"></rect><rect width="5" height="4" fill="#03bce4" data-name="Rectangle 90" transform="translate(157.591 .406)" class="color754ef9 svgShape"></rect><rect width="4" height="4" fill="#03bce4" data-name="Rectangle 91" transform="translate(140.591 .406)" class="color754ef9 svgShape"></rect><rect width="5" height="4" fill="#03bce4" data-name="Rectangle 92" transform="translate(122.591 .406)" class="color754ef9 svgShape"></rect><rect width="4" height="4" fill="#03bce4" data-name="Rectangle 93" transform="translate(105.591 .406)" class="color754ef9 svgShape"></rect><rect width="5" height="4" fill="#03bce4" data-name="Rectangle 94" transform="translate(88.591 .406)" class="color754ef9 svgShape"></rect><rect width="4" height="4" fill="#03bce4" data-name="Rectangle 95" transform="translate(70.591 .406)" class="color754ef9 svgShape"></rect><rect width="5" height="4" fill="#03bce4" data-name="Rectangle 96" transform="translate(52.591 .406)" class="color754ef9 svgShape"></rect><rect width="5" height="4" fill="#03bce4" data-name="Rectangle 97" transform="translate(34.591 .406)" class="color754ef9 svgShape"></rect><rect width="5" height="4" fill="#03bce4" data-name="Rectangle 98" transform="translate(17.591 .406)" class="color754ef9 svgShape"></rect><rect width="5" height="4" fill="#03bce4" data-name="Rectangle 99" transform="translate(-.409 .406)" class="color754ef9 svgShape"></rect></g><g data-name="Group 113" transform="translate(0 257.283)" fill="#03bce4" class="color000 svgShape"><rect width="5" height="4" fill="#03bce4" data-name="Rectangle 86" transform="translate(227.591 -.283)" class="color754ef9 svgShape"></rect><rect width="4" height="4" fill="#03bce4" data-name="Rectangle 87" transform="translate(210.591 -.283)" class="color754ef9 svgShape"></rect><rect width="5" height="4" fill="#03bce4" data-name="Rectangle 88" transform="translate(192.591 -.283)" class="color754ef9 svgShape"></rect><rect width="4" height="4" fill="#03bce4" data-name="Rectangle 89" transform="translate(175.591 -.283)" class="color754ef9 svgShape"></rect><rect width="5" height="4" fill="#03bce4" data-name="Rectangle 90" transform="translate(157.591 -.283)" class="color754ef9 svgShape"></rect><rect width="4" height="4" fill="#03bce4" data-name="Rectangle 91" transform="translate(140.591 -.283)" class="color754ef9 svgShape"></rect><rect width="5" height="4" fill="#03bce4" data-name="Rectangle 92" transform="translate(122.591 -.283)" class="color754ef9 svgShape"></rect><rect width="4" height="4" fill="#03bce4" data-name="Rectangle 93" transform="translate(105.591 -.283)" class="color754ef9 svgShape"></rect><rect width="5" height="4" fill="#03bce4" data-name="Rectangle 94" transform="translate(88.591 -.283)" class="color754ef9 svgShape"></rect><rect width="4" height="4" fill="#03bce4" data-name="Rectangle 95" transform="translate(70.591 -.283)" class="color754ef9 svgShape"></rect><rect width="5" height="4" fill="#03bce4" data-name="Rectangle 96" transform="translate(52.591 -.283)" class="color754ef9 svgShape"></rect><rect width="5" height="4" fill="#03bce4" data-name="Rectangle 97" transform="translate(34.591 -.283)" class="color754ef9 svgShape"></rect><rect width="5" height="4" fill="#03bce4" data-name="Rectangle 98" transform="translate(17.591 -.283)" class="color754ef9 svgShape"></rect><rect width="5" height="4" fill="#03bce4" data-name="Rectangle 99" transform="translate(-.409 -.283)" class="color754ef9 svgShape"></rect></g><g data-name="Group 101" transform="translate(0 57.351)" fill="#03bce4" class="color000 svgShape"><rect width="5" height="4" fill="#03bce4" data-name="Rectangle 86" transform="translate(227.591 -.351)" class="color754ef9 svgShape"></rect><rect width="4" height="4" fill="#03bce4" data-name="Rectangle 87" transform="translate(210.591 -.351)" class="color754ef9 svgShape"></rect><rect width="5" height="4" fill="#03bce4" data-name="Rectangle 88" transform="translate(192.591 -.351)" class="color754ef9 svgShape"></rect><rect width="4" height="4" fill="#03bce4" data-name="Rectangle 89" transform="translate(175.591 -.351)" class="color754ef9 svgShape"></rect><rect width="5" height="4" fill="#03bce4" data-name="Rectangle 90" transform="translate(157.591 -.351)" class="color754ef9 svgShape"></rect><rect width="4" height="4" fill="#03bce4" data-name="Rectangle 91" transform="translate(140.591 -.351)" class="color754ef9 svgShape"></rect><rect width="5" height="4" fill="#03bce4" data-name="Rectangle 92" transform="translate(122.591 -.351)" class="color754ef9 svgShape"></rect><rect width="4" height="4" fill="#03bce4" data-name="Rectangle 93" transform="translate(105.591 -.351)" class="color754ef9 svgShape"></rect><rect width="5" height="4" fill="#03bce4" data-name="Rectangle 94" transform="translate(88.591 -.351)" class="color754ef9 svgShape"></rect><rect width="4" height="4" fill="#03bce4" data-name="Rectangle 95" transform="translate(70.591 -.351)" class="color754ef9 svgShape"></rect><rect width="5" height="4" fill="#03bce4" data-name="Rectangle 96" transform="translate(52.591 -.351)" class="color754ef9 svgShape"></rect><rect width="5" height="4" fill="#03bce4" data-name="Rectangle 97" transform="translate(34.591 -.351)" class="color754ef9 svgShape"></rect><rect width="5" height="4" fill="#03bce4" data-name="Rectangle 98" transform="translate(17.591 -.351)" class="color754ef9 svgShape"></rect><rect width="5" height="4" fill="#03bce4" data-name="Rectangle 99" transform="translate(-.409 -.351)" class="color754ef9 svgShape"></rect></g><g data-name="Group 102" transform="translate(0 129.04)" fill="#03bce4" class="color000 svgShape"><rect width="5" height="4" fill="#03bce4" data-name="Rectangle 86" transform="translate(227.591 -.04)" class="color754ef9 svgShape"></rect><rect width="4" height="4" fill="#03bce4" data-name="Rectangle 87" transform="translate(210.591 -.04)" class="color754ef9 svgShape"></rect><rect width="5" height="4" fill="#03bce4" data-name="Rectangle 88" transform="translate(192.591 -.04)" class="color754ef9 svgShape"></rect><rect width="4" height="4" fill="#03bce4" data-name="Rectangle 89" transform="translate(175.591 -.04)" class="color754ef9 svgShape"></rect><rect width="5" height="4" fill="#03bce4" data-name="Rectangle 90" transform="translate(157.591 -.04)" class="color754ef9 svgShape"></rect><rect width="4" height="4" fill="#03bce4" data-name="Rectangle 91" transform="translate(140.591 -.04)" class="color754ef9 svgShape"></rect><rect width="5" height="4" fill="#03bce4" data-name="Rectangle 92" transform="translate(122.591 -.04)" class="color754ef9 svgShape"></rect><rect width="4" height="4" fill="#03bce4" data-name="Rectangle 93" transform="translate(105.591 -.04)" class="color754ef9 svgShape"></rect><rect width="5" height="4" fill="#03bce4" data-name="Rectangle 94" transform="translate(88.591 -.04)" class="color754ef9 svgShape"></rect><rect width="4" height="4" fill="#03bce4" data-name="Rectangle 95" transform="translate(70.591 -.04)" class="color754ef9 svgShape"></rect><rect width="5" height="4" fill="#03bce4" data-name="Rectangle 96" transform="translate(52.591 -.04)" class="color754ef9 svgShape"></rect><rect width="5" height="4" fill="#03bce4" data-name="Rectangle 97" transform="translate(34.591 -.04)" class="color754ef9 svgShape"></rect><rect width="5" height="4" fill="#03bce4" data-name="Rectangle 98" transform="translate(17.591 -.04)" class="color754ef9 svgShape"></rect><rect width="5" height="4" fill="#03bce4" data-name="Rectangle 99" transform="translate(-.409 -.04)" class="color754ef9 svgShape"></rect></g><g data-name="Group 107" transform="translate(0 199.932)" fill="#03bce4" class="color000 svgShape"><rect width="5" height="5" fill="#03bce4" data-name="Rectangle 86" transform="translate(227.591 .068)" class="color754ef9 svgShape"></rect><rect width="4" height="5" fill="#03bce4" data-name="Rectangle 87" transform="translate(210.591 .068)" class="color754ef9 svgShape"></rect><rect width="5" height="5" fill="#03bce4" data-name="Rectangle 88" transform="translate(192.591 .068)" class="color754ef9 svgShape"></rect><rect width="4" height="5" fill="#03bce4" data-name="Rectangle 89" transform="translate(175.591 .068)" class="color754ef9 svgShape"></rect><rect width="5" height="5" fill="#03bce4" data-name="Rectangle 90" transform="translate(157.591 .068)" class="color754ef9 svgShape"></rect><rect width="4" height="5" fill="#03bce4" data-name="Rectangle 91" transform="translate(140.591 .068)" class="color754ef9 svgShape"></rect><rect width="5" height="5" fill="#03bce4" data-name="Rectangle 92" transform="translate(122.591 .068)" class="color754ef9 svgShape"></rect><rect width="4" height="5" fill="#03bce4" data-name="Rectangle 93" transform="translate(105.591 .068)" class="color754ef9 svgShape"></rect><rect width="5" height="5" fill="#03bce4" data-name="Rectangle 94" transform="translate(88.591 .068)" class="color754ef9 svgShape"></rect><rect width="4" height="5" fill="#03bce4" data-name="Rectangle 95" transform="translate(70.591 .068)" class="color754ef9 svgShape"></rect><rect width="5" height="5" fill="#03bce4" data-name="Rectangle 96" transform="translate(52.591 .068)" class="color754ef9 svgShape"></rect><rect width="5" height="5" fill="#03bce4" data-name="Rectangle 97" transform="translate(34.591 .068)" class="color754ef9 svgShape"></rect><rect width="5" height="5" fill="#03bce4" data-name="Rectangle 98" transform="translate(17.591 .068)" class="color754ef9 svgShape"></rect><rect width="5" height="5" fill="#03bce4" data-name="Rectangle 99" transform="translate(-.409 .068)" class="color754ef9 svgShape"></rect></g><g data-name="Group 112" transform="translate(0 270.824)" fill="#03bce4" class="color000 svgShape"><rect width="5" height="5" fill="#03bce4" data-name="Rectangle 86" transform="translate(227.591 .176)" class="color754ef9 svgShape"></rect><rect width="4" height="5" fill="#03bce4" data-name="Rectangle 87" transform="translate(210.591 .176)" class="color754ef9 svgShape"></rect><rect width="5" height="5" fill="#03bce4" data-name="Rectangle 88" transform="translate(192.591 .176)" class="color754ef9 svgShape"></rect><rect width="4" height="5" fill="#03bce4" data-name="Rectangle 89" transform="translate(175.591 .176)" class="color754ef9 svgShape"></rect><rect width="5" height="5" fill="#03bce4" data-name="Rectangle 90" transform="translate(157.591 .176)" class="color754ef9 svgShape"></rect><rect width="4" height="5" fill="#03bce4" data-name="Rectangle 91" transform="translate(140.591 .176)" class="color754ef9 svgShape"></rect><rect width="5" height="5" fill="#03bce4" data-name="Rectangle 92" transform="translate(122.591 .176)" class="color754ef9 svgShape"></rect><rect width="4" height="5" fill="#03bce4" data-name="Rectangle 93" transform="translate(105.591 .176)" class="color754ef9 svgShape"></rect><rect width="5" height="5" fill="#03bce4" data-name="Rectangle 94" transform="translate(88.591 .176)" class="color754ef9 svgShape"></rect><rect width="4" height="5" fill="#03bce4" data-name="Rectangle 95" transform="translate(70.591 .176)" class="color754ef9 svgShape"></rect><rect width="5" height="5" fill="#03bce4" data-name="Rectangle 96" transform="translate(52.591 .176)" class="color754ef9 svgShape"></rect><rect width="5" height="5" fill="#03bce4" data-name="Rectangle 97" transform="translate(34.591 .176)" class="color754ef9 svgShape"></rect><rect width="5" height="5" fill="#03bce4" data-name="Rectangle 98" transform="translate(17.591 .176)" class="color754ef9 svgShape"></rect><rect width="5" height="5" fill="#03bce4" data-name="Rectangle 99" transform="translate(-.409 .176)" class="color754ef9 svgShape"></rect></g></g></svg></g></svg>